<svg xmlns="http://www.w3.org/2000/svg" viewBox="0 0 1440 225"><path fill="#f8f8f878" fill-opacity="1" d="M0,96L34.3,85.3C68.6,75,137,53,206,64C274.3,75,343,117,411,160C480,203,549,245,617,229.3C685.7,213,754,139,823,96C891.4,53,960,43,1029,58.7C1097.1,75,1166,117,1234,112C1302.9,107,1371,53,1406,26.7L1440,0L1440,320L1405.7,320C1371.4,320,1303,320,1234,320C1165.7,320,1097,320,1029,320C960,320,891,320,823,320C754.3,320,686,320,617,320C548.6,320,480,320,411,320C342.9,320,274,320,206,320C137.1,320,69,320,34,320L0,320Z"></path></svg>