<svg xmlns="http://www.w3.org/2000/svg" viewBox="0 0 1440 245"><path fill="#f8f8f892" fill-opacity="1" d="M0,256L34.3,261.3C68.6,267,137,277,206,240C274.3,203,343,117,411,106.7C480,96,549,160,617,170.7C685.7,181,754,139,823,149.3C891.4,160,960,224,1029,218.7C1097.1,213,1166,139,1234,128C1302.9,117,1371,171,1406,197.3L1440,224L1440,320L1405.7,320C1371.4,320,1303,320,1234,320C1165.7,320,1097,320,1029,320C960,320,891,320,823,320C754.3,320,686,320,617,320C548.6,320,480,320,411,320C342.9,320,274,320,206,320C137.1,320,69,320,34,320L0,320Z"></path></svg>